# xmcd
#
# Track frame offsets: 
#        150
#        18375
#        39075
#        54675
#        73865
#        90140
#        108965
#        126965
#        146540
#        167540
#
# Disc length: 2484 seconds
#
# Revision: 0
# Processed by: cddbd v1.5.2PL0 Copyright (c) Steve Scherf et al.
# Submitted via: ExactAudioCopy v0.99pb4
#
DISCID=7a09b20a
DTITLE=ฝน  ธนสุนทร - Pen Faen Kan Ma
DYEAR=2008
DGENRE=Country
TTITLE0=เป็นแฟนกันมะ
TTITLE1=จากวันนี้ไป...ให้ใจนำทาง
TTITLE2=ฉันชอบเธอ
TTITLE3=ไม่เคยรู้สึกแบบนี้กับใคร
TTITLE4=มาเสี่ยงดวง
TTITLE5=โทร.หาจะว่าไหม
TTITLE6=เป็นข่าวอีกแล้ว
TTITLE7=ทางออกอยู่ไหนบอกที
TTITLE8=ลึกๆ ในใจ
TTITLE9=รักแท้คือแม่เรา
EXTD=
EXTT0=
EXTT1=
EXTT2=
EXTT3=
EXTT4=
EXTT5=
EXTT6=
EXTT7=
EXTT8=
EXTT9=
PLAYORDER=
